<svg xmlns="http://www.w3.org/2000/svg" width="10.79" height="11.509" viewBox="0 0 10.79 11.509"><defs><style>.a{fill:#fff;}</style></defs><g transform="translate(2.518)"><path class="a" d="M133.72,5.246a.359.359,0,0,0-.327-.211h-1.439V.36a.36.36,0,0,0-.36-.36h-1.439a.36.36,0,0,0-.36.36V5.035h-1.439a.359.359,0,0,0-.27.6L130.6,8.509a.359.359,0,0,0,.541,0l2.518-2.877A.359.359,0,0,0,133.72,5.246Z" transform="translate(-127.998)"/></g><g transform="translate(0 7.912)"><path class="a" d="M25.351,352v2.158H17.439V352H16v2.877a.719.719,0,0,0,.719.719H26.07a.719.719,0,0,0,.719-.719V352Z" transform="translate(-16 -352)"/></g></svg>